<svg width="1023" height="1112" viewBox="0 0 1023 1112" fill="none" xmlns="http://www.w3.org/2000/svg"><path opacity=".5" d="M318.635 37.6942C198.697 138.217 180.111 328.298 98.8809 468.527 70.6041 517.322 34.0667 560.992 15.0036 615.123-28.7619 739.026 31.472 879.572 112.093 977.981 150.536 1024.93 195.44 1067.94 249.77 1087.72 291.55 1102.94 336.348 1103.57 380.325 1103.97L1150.79 1111.9C1236.81 1112.77 1332.39 1109.62 1394.24 1043.21 1436.87 997.478 1454.18 930.692 1468.88 866.944 1486.93 788.613 1503.3 703.546 1475.2 628.94 1443.11 543.582 1361.96 495.21 1311.55 421.555 1229.74 302.223 1231.62 121.731 1127.44 26.4664 1078.8-17.9959 1014.62-35.4321 952.083-44.1502 834.184-60.6089 722.506-29.5408 606.725-33.8734 507.756-37.572 400.739-31.1259 318.635 37.6942z" fill="#e7ecff"/><path opacity=".24" d="M560.078 933.613C513.629 938.283 465.755 943.419 424.881 966.264 419.41 969.328 413.856 972.942 410.837 978.458 404.78 989.553 411.655 1004.18 422.324 1010.86 432.993 1017.53 446.156 1018.29 458.712 1018.84 682.279 1028.59 906.181 1024.76 1129.94 1020.96 1194.92 1019.86 1260.92 1018.59 1323.19 999.718 1334.39 996.337 1346.69 991.265 1350.9 980.212 1356.42 965.757 1343.84 949.737 1329.17 945.236 1314.5 940.735 1298.84 944.095 1283.66 946.06 1230.97 952.886 1177.81 942.446 1125.35 934.099 1022.64 917.784 916.075 904.512 812.047 902.039 776.581 901.215 746.293 913.515 711.582 918.376 661.465 925.434 610.467 928.541 560.078 933.613z" fill="#505f98"/><path d="M377.369 500.326 493.198 264.408 562.185 298.19 446.355 534.108 377.369 500.326z" fill="#fff"/><path d="M404.214 493.055 418.327 464.22 464.791 486.903 450.678 515.738 404.214 493.055z" fill="#505f98"/><path d="M404.214 493.055 418.327 464.22 464.791 486.903 450.678 515.738 404.214 493.055z" fill="url(#paint0_linear)"/><path d="M418.329 464.445 432.443 435.61 478.907 458.293 464.794 487.128 418.329 464.445z" fill="#505f98"/><path d="M418.329 464.445 432.443 435.61 478.907 458.293 464.794 487.128 418.329 464.445z" fill="url(#paint1_linear)"/><path d="M432.426 435.826 446.54 406.991 493.004 429.674 478.89 458.509 432.426 435.826z" fill="#505f98"/><path d="M432.426 435.826 446.54 406.991 493.004 429.674 478.89 458.509 432.426 435.826z" fill="url(#paint2_linear)"/><path d="M446.563 407.237 460.676 378.402 507.14 401.085 493.027 429.92 446.563 407.237z" fill="#505f98"/><path d="M446.563 407.237 460.676 378.402 507.14 401.085 493.027 429.92 446.563 407.237z" fill="url(#paint3_linear)"/><path d="M460.668 378.599 474.782 349.764 521.246 372.447 507.133 401.282 460.668 378.599z" fill="#505f98"/><path d="M474.784 350.01 488.897 321.175 535.362 343.858 521.248 372.693 474.784 350.01z" fill="#505f98"/><path d="M488.881 321.391 502.994 292.556 549.458 315.239 535.345 344.074 488.881 321.391z" fill="#505f98"/><path d="M473.196 353.598 487.309 324.763 533.774 347.446 519.66 376.281 473.196 353.598z" fill="url(#paint4_linear)"/><path d="M487.321 324.97 501.434 296.135 547.898 318.817 533.785 347.652 487.321 324.97z" fill="url(#paint5_linear)"/><path d="M787.837 818h98.0679v82H787.837z" fill="#505f98"/><path d="M787.837 818h98.0679v82H787.837z" fill="url(#paint6_linear)"/><rect x="579.693" y="476" width="518.359" height="355" rx="9.37" fill="#505f98"/><path opacity=".65" d="M1081.04 505.438V799.562C1081.06 804.443 1079.13 809.129 1075.69 812.588 1072.25 816.047 1067.58 817.994 1062.7 818H611.039C606.165 817.989 601.494 816.04 598.056 812.582 594.617 809.125 592.691 804.441 592.702 799.562V505.438C592.691 500.559 594.617 495.875 598.056 492.418 601.494 488.96 606.165 487.011 611.039 487H1062.7C1067.58 487.006 1072.25 488.953 1075.69 492.412 1079.13 495.871 1081.06 500.557 1081.04 505.438z" fill="url(#paint7_linear)"/><path d="M742.806 890h206.143v21H742.806z" fill="#505f98"/><path d="M787.837 878h98.0679v12H787.837z" fill="url(#paint8_linear)"/><path fill-rule="evenodd" clip-rule="evenodd" d="M942.945 304.241V324.715L930.235 324.819C928.999 334.346 925.375 343.41 919.697 351.181L930.552 362.351 915.672 376.6 904.986 365.578C898.397 370.062 890.962 373.17 883.13 374.714V388H862.559V375.029C853.774 373.76 845.402 370.497 838.089 365.494L829.153 374.316 814.589 359.647 823.462 350.993C817.876 343.219 814.313 334.191 813.092 324.715H798.845V304.241H813.598C815.427 296.093 819.024 288.441 824.136 281.819L815.896 273.332 830.776 259.082 839.206 267.82C846.176 263.214 854.1 260.228 862.39 259.082V245H882.961V259.396C891.33 261.055 899.239 264.493 906.145 269.476L916.683 259.166 931.163 273.709 920.625 284.187C924.756 290.267 927.689 297.073 929.266 304.241H942.945zM836.803 317.15C836.78 336.211 852.303 351.682 871.474 351.705 880.686 351.733 889.529 348.113 896.051 341.644 902.572 335.176 906.235 326.392 906.229 317.233 906.253 298.172 890.73 282.701 871.559 282.678 852.387 282.655 836.827 298.088 836.803 317.15z" fill="#505f98"/><path fill-rule="evenodd" clip-rule="evenodd" d="M1019 338.354 1018.08 350.396 1010.57 349.938C1009.44 355.475 1006.94 360.641 1003.28 364.958L1009.15 372.021 999.798 379.729 994.039 372.792C989.984 375.13 985.498 376.625 980.85 377.188L980.245 385 968.204 384.104 968.788 376.479C963.703 375.344 958.947 373.056 954.89 369.792L949.256 374.583 941.388 365.396 946.96 360.688C944.032 355.876 942.346 350.414 942.056 344.792L933.938 344.167 934.836 332.146 943.454 332.792C944.878 328.085 947.305 323.743 950.57 320.062L946.125 314.708 955.474 307 960.003 312.5C964.274 310.095 969.029 308.672 973.922 308.333L974.548 3e2 986.589 300.896 985.942 309.375C990.749 310.714 995.207 313.081 999.005 316.312L1005.62 310.708 1013.47 319.896 1006.79 325.583C1008.96 329.339 1010.37 333.477 1010.96 337.771L1019 338.354zM956.3 341.243C955.445 352.436 963.837 362.203 975.049 363.062 980.443 363.487 985.784 361.747 989.889 358.228 993.994 354.708 996.524 349.7 996.919 344.312 997.761 333.119 989.358 323.361 978.146 322.514 966.934 321.666 957.155 330.05 956.3 341.243z" fill="#505f98"/><path d="M1081.04 505.513V512H592.702V505.513C592.691 500.614 594.617 495.912 598.056 492.44 601.495 488.968 606.166 487.011 611.041 487H1062.7C1067.58 487.006 1072.25 488.961 1075.69 492.434 1079.13 495.907 1081.06 500.613 1081.04 505.513z" fill="url(#paint9_linear)"/><path d="M602.709 544h47.0326v227H602.709z" fill="url(#paint10_linear)"/><path d="M720.791 560h221.153v209H720.791z" fill="url(#paint11_linear)"/><path d="M771.826 658h7.00485v9H771.826z" fill="url(#paint12_linear)"/><path d="M771.826 616h7.00485v9H771.826z" fill="url(#paint13_linear)"/><path d="M676.76 658h7.00485v9H676.76z" fill="url(#paint14_linear)"/><path d="M676.76 616h7.00485v9H676.76z" fill="url(#paint15_linear)"/><path d="M771.826 571h7.00485v9H771.826z" fill="url(#paint16_linear)"/><path d="M677.761 571h7.00485v9H677.761z" fill="url(#paint17_linear)"/><path d="M725.794 571h7.00485v9H725.794z" fill="url(#paint18_linear)"/><path d="M725.794 658h7.00485v9H725.794z" fill="url(#paint19_linear)"/><path fill-rule="evenodd" clip-rule="evenodd" d="M689.769 656H767.823V583H689.769v73zM759.961 648.282H697.631V590.656H759.961V648.282z" fill="#505f98"/><path fill-rule="evenodd" clip-rule="evenodd" d="M689.769 656H767.823V583H689.769v73zM759.961 648.282H697.631V590.656H759.961V648.282z" fill="url(#paint20_linear)"/><path d="M973.966 524h100.069v1e2H973.966z" fill="url(#paint21_linear)"/><path d="M973.966 634h100.069v1e2H973.966z" fill="url(#paint22_linear)"/><path opacity=".65" d="M602.709 543h47.0326v13H602.709z" fill="url(#paint23_linear)"/><path d="M399.673 474.827 604.801 310.293 652.914 370.118 447.785 534.652 399.673 474.827z" fill="#fff"/><path d="M428.396 479.455 453.464 459.235 486.046 499.522 460.979 519.742 428.396 479.455z" fill="#505f98"/><path d="M428.396 479.455 453.464 459.235 486.046 499.522 460.979 519.742 428.396 479.455z" fill="url(#paint24_linear)"/><path d="M452.014 459.689 477.047 439.56 509.481 479.79 484.449 499.919 452.014 459.689z" fill="#505f98"/><path d="M452.014 459.689 477.047 439.56 509.481 479.79 484.449 499.919 452.014 459.689z" fill="url(#paint25_linear)"/><path d="M476.958 439.761 501.99 419.633 534.425 459.863 509.393 479.991 476.958 439.761z" fill="#505f98"/><path d="M476.958 439.761 501.99 419.633 534.425 459.863 509.393 479.991 476.958 439.761z" fill="url(#paint26_linear)"/><path d="M501.886 419.847 526.918 399.718 559.353 439.948 534.321 460.077 501.886 419.847z" fill="#505f98"/><path d="M501.886 419.847 526.918 399.718 559.353 439.948 534.321 460.077 501.886 419.847z" fill="url(#paint27_linear)"/><path d="M528.006 399.389 553.073 379.169 585.656 419.456 560.588 439.676 528.006 399.389z" fill="#505f98"/><path d="M553.086 378.99 578.154 358.77 610.736 399.057 585.668 419.277 553.086 378.99z" fill="#505f98"/><path d="M576.693 360.051 601.726 339.923 634.161 380.153 609.128 400.281 576.693 360.051z" fill="#505f98"/><path d="M606.712 403.218 585.613 420 553.675 379.782 574.774 363 606.712 403.218z" fill="url(#paint28_linear)"/><path d="M573.736 362.648 598.768 342.519 631.203 382.749 606.171 402.878 573.736 362.648z" fill="url(#paint29_linear)"/><path d="M522.653 484.15V607H501.639V484.15C501.639 479.61 504.457 475.57 508.657 474.089V461.825C508.657 459.712 510.333 458 512.4 458 514.468 458 516.144 459.712 516.144 461.825V474.297C520.063 475.935 522.632 479.823 522.653 484.15z" fill="#505f98"/><path d="M522.653 484.15V607H501.639V484.15C501.639 479.61 504.457 475.57 508.657 474.089V461.825C508.657 459.712 510.333 458 512.4 458 514.468 458 516.144 459.712 516.144 461.825V474.297C520.063 475.935 522.632 479.823 522.653 484.15z" fill="url(#paint30_linear)"/><rect x="488.63" y="562" width="50.0346" height="9" rx="2.245" fill="#505f98"/><path d="M513.336 644C504.763 644 497.636 631.185 497.636 622.634V566H528.658V622.634C528.658 631.185 521.887 644 513.336 644z" fill="#505f98"/><rect x="488.63" y="562" width="50.0346" height="9" rx="2.245" fill="url(#paint31_linear)"/><path d="M513.336 644C504.763 644 497.636 631.366 497.636 622.937V571H528.658V622.937C528.658 631.366 521.887 644 513.336 644z" fill="url(#paint32_linear)"/><path d="M713.428 704C712.754 700.436 712.329 695.39 713.623 695.043 716.351 694.275 713.428 704 713.428 704z" fill="#28353d"/><path d="M856.687 899.507C856.201 912.102 846.439 958.388 846.122 971.004 846.122 975.202 847.242 981.647 845.889 985.698 843.1 994.284 833.211 993.108 831.922 988.049L831.436 985.53C826.85 961.012 834.225 933.198 831.436 901.186 829.766 881.643 821.99 843.963 816.898 843.711 814.214 843.711 752.957 972.851 747.632 980.807 745.011 984.817 737.637 984.187 734.066 987.42 730.495 990.652 763.818 889.515 777.785 836.07 781.043 825.039 783.167 813.709 784.124 802.252 784.505 795.64 782.37 793.415 788.477 791.463 792.703 790.119 798.557 790.497 803.078 790.182 808.002 789.804 853.792 789.72 853.792 792.953 853.348 810.502 857.87 870.412 856.687 899.507z" fill="#606161"/><path d="M856.687 899.507C856.201 912.102 846.439 958.388 846.122 971.004 846.122 975.202 847.242 981.647 845.889 985.698 843.1 994.284 833.211 993.108 831.922 988.049L831.436 985.53C826.85 961.012 834.225 933.198 831.436 901.186 829.766 881.643 821.99 843.963 816.898 843.711 814.214 843.711 752.957 972.851 747.632 980.807 745.011 984.817 737.637 984.187 734.066 987.42 730.495 990.652 763.818 889.515 777.785 836.07 781.043 825.039 783.167 813.709 784.124 802.252 784.505 795.64 782.37 793.415 788.477 791.463 792.703 790.119 798.557 790.497 803.078 790.182 808.002 789.804 853.792 789.72 853.792 792.953 853.348 810.502 857.87 870.412 856.687 899.507z" fill="url(#paint33_linear)"/><path d="M802.614 631.148C802.229 627.163 800.346 625 798.506 625 796.667 625 795.533 627.12 795.918 631.148 796.005 634.122 798.249 636.597 801.223 637 803.085 637 803.02 635.134 802.614 631.148z" fill="#ffcd9c"/><path d="M835.008 631.159C835.258 627.166 837.095 625 838.994 625 840.893 625 842.124 627.124 841.832 631.159 841.805 634.173 839.56 636.687 836.615 637 834.736 637 834.715 635.152 835.008 631.159z" fill="#ffcd9c"/><path d="M838.732 648.672C838.473 650.777 829.558 660 819.413 660 809.267 660 800.892 651.577 799.122 648.208 797.352 644.839 804.475 601.505 808.598 597.884 812.721 594.262 829.429 596.641 830.832 598.558 834.199 603.085 839.833 640.27 838.732 648.672z" fill="#f4ad7d"/><path d="M834.538 615.977C833.159 616.639 827.743 602.842 826.607 600.525 825.472 598.208 825.654 595.829 827.033 595.167 828.413 594.505 830.441 595.871 831.577 598.167 832.713 600.463 835.897 615.336 834.538 615.977z" fill="#ffcd9c"/><path d="M804.168 614.987C802.737 614.501 806.525 600.179 807.351 597.703 808.177 595.228 810.031 593.599 811.381 594.086 812.731 594.573 813.295 596.984 812.469 599.481 811.643 601.977 805.518 615.474 804.168 614.987z" fill="#ffcd9c"/><path d="M809.845 647H831.608L834.87 667.622C823.014 674.005 816.101 673.301 806.85 666.214L809.845 647z" fill="#f4ad7d"/><path d="M818.859 651.13C818.859 650.75 819.764 650.43 820.86 650.43 821.956 650.43 822.861 650.75 822.861 651.13 822.861 651.51 821.98 651.57 820.86 651.57 819.74 651.57 818.859 651.53 818.859 651.13z" fill="#f4ad7d"/><path d="M839.892 641.808C840.716 636.894 842.06 601.708 838.764 597.051 835.469 592.394 815.741 589.381 812.749 590.108 806.05 591.731 807.221 596.517 807.221 596.517 805.23 596.547 803.28 597.084 801.563 598.076 799.265 599.615 794.43 621.79 798.289 638.56 800.023 646.102 806.852 652.66 818.646 652.981 833.171 653.365 838.895 647.896 839.892 641.808z" fill="#606161"/><path d="M812.831 591.762C814.39 590.448 816.41 589.828 818.43 590.041 824.563 590.008 830.647 591.14 836.365 593.376 839.535 594.488 842.414 596.311 844.785 598.708 847.172 601.173 848.271 604.627 847.753 608.034 846.7 613.047 841.438 616.148 839.712 620.97 838.322 624.837 839.312 628.575 839.354 632.463 839.382 635.606 839.156 638.746 838.68 641.852 837.712 647.906 832.176 653.344 817.967 652.983 806.516 652.664 799.885 646.143 798.201 638.644 795.921 626.198 796.519 613.389 799.948 601.215 806.12 602.648 812.434 603.361 818.767 603.339 825.482 603.395 832.178 602.611 838.701 601.002 839.817 607.503 839.796 620.524 839.438 630.253" fill="#606161"/><path d="M777.702 663.954C774.268 664.241 770.96 665.384 768.077 667.28 763.139 671.171 762.764 678.43 762.848 684.748 762.678 693.501 763.285 702.252 764.66 710.897 766.139 718.826 768.827 726.441 771.035 734.202 774.516 746.831 776.344 759.862 776.473 772.966 776.473 780.162 776.348 788.07 780.827 793.697 785.723 799.806 794.39 800.998 802.182 801.438 813.245 802.086 824.349 802.17 835.412 801.709 842.829 801.375 850.725 800.643 856.6 796.082 861.288 792.442 872.267 669.288 863.746 666.171 855.225 663.054 846.058 662.259 837.016 661.506 816.745 659.791 797.661 658.431 777.702 663.954z" fill="#505f98"/><path d="M841.521 919.291C840.435 933.255 837.843 984 837.843 984L831.238 983.77C826.702 959.39 833.997 931.732 831.238 899.899 829.586 880.465 821.895 842.996 816.857 842.746 818.362 830.221 826.827 832.1 826.827 832.1 832.984 841.294 838.294 851.026 842.692 861.178 847.729 874.37 842.629 905.263 841.521 919.291z" fill="url(#paint34_linear)"/><path d="M717.164 985.024C716.133 985.786 715.35 986.83 714.913 988.025 714.678 989.009 714.773 990.04 715.184 990.965 716.35 993.326 718.56 995.019 721.168 995.55 723.744 996.04 726.383 996.131 728.987 995.818L737.328 995.262C739.45 995.212 741.555 994.873 743.583 994.255 745.614 993.627 747.289 992.198 748.212 990.308 748.704 988.916 748.895 987.438 748.775 985.969 748.775 979.164 746.357 973.634 738.808 975.299 730.902 976.765 723.474 980.102 717.164 985.024z" fill="#505f98"/><path d="M855.703 988.063C856.65 988.759 857.369 989.709 857.77 990.797 857.984 991.682 857.9 992.611 857.53 993.446 856.468 995.584 854.438 997.114 852.047 997.579 849.69 998.035 847.273 998.121 844.888 997.834L837.316 997.325C835.39 997.284 833.478 996.985 831.636 996.435 829.779 995.864 828.25 994.566 827.415 992.853 826.967 991.595 826.789 990.26 826.893 988.932 826.893 982.785 829.069 977.72 836.01 979.288 843.206 980.619 849.964 983.63 855.703 988.063z" fill="#505f98"/><path d="M864.891 666C864.891 666 897.606 685.163 907.432 709.389 917.257 733.614 875.252 792 875.252 792L866.263 782.814C866.263 782.814 888.188 738.759 884.799 727.74 881.409 716.721 868.13 706.452 868.13 706.452L864.891 666z" fill="#505f98"/><path d="M771.826 703.859C771.826 703.859 726.338 724.24 707.853 714.238 689.368 704.237 708.398 654 708.398 654L720.777 658.202C720.777 658.202 710.433 683.815 722.267 687.618 734.101 691.421 769.56 666.438 769.56 666.438L771.826 703.859z" fill="#505f98"/><path d="M857.466 790.976C856.158 791.826 855.097 792.968 854.381 794.297 853.952 795.425 853.797 796.629 853.928 797.819 853.849 800.709 855.163 803.479 857.51 805.367 859.158 806.25 861.005 806.76 862.903 806.857 864.066 807.048 865.256 807.048 866.419 806.857 867.606 806.646 868.597 805.888 869.051 804.844 869.206 804.183 869.271 803.507 869.245 802.831 869.396 799.51 871.899 796.793 873.97 794.076 874.47 793.551 874.793 792.9 874.897 792.204 874.885 791.434 874.597 790.69 874.078 790.091 872.675 788.199 869.202 784.717 866.419 785.018 863.636 785.32 859.624 789.326 857.466 790.976z" fill="#f4ad7d"/><path d="M728.585 646.435C729.178 645.611 729.582 644.679 729.772 643.698 729.923 642.683 729.386 641.687 728.431 641.211 726.915 640.647 725.114 642.13 723.62 641.504 723.114 641.235 722.69 640.846 722.389 640.375 720.625 637.945 719.613 635.093 719.467 632.143 719.553 630.571 719.405 628.995 719.028 627.463 718.583 625.886 717 624.849 715.293 625.018 713.886 625.331 713.095 626.689 712.217 627.776 711.338 628.863 709.58 630.158 708.437 631.516 706.487 634.307 705.37 637.55 705.208 640.898 704.592 645.077 704.197 649.861 707.273 652.87 709.646 655.189 716.874 657.927 720.192 656.694 723.861 655.315 726.74 649.444 728.585 646.435z" fill="#f4ad7d"/><defs><linearGradient id="paint0_linear" x1="528.402" y1="560.166" x2="593.156" y2="431.6" gradientUnits="userSpaceOnUse"><stop stop-color="#010101" stop-opacity=".01"/><stop offset=".95" stop-color="#010101"/></linearGradient><linearGradient id="paint1_linear" x1="583.563" y1="556.365" x2="676.417" y2="374.775" gradientUnits="userSpaceOnUse"><stop stop-color="#010101" stop-opacity=".01"/><stop offset=".95" stop-color="#010101"/></linearGradient><linearGradient id="paint2_linear" x1="703.545" y1="565.092" x2="840.899" y2="254.948" gradientUnits="userSpaceOnUse"><stop stop-color="#010101" stop-opacity=".01"/><stop offset=".95" stop-color="#010101"/></linearGradient><linearGradient id="paint3_linear" x1="831.379" y1="581.583" x2="1036.31" y2="134.179" gradientUnits="userSpaceOnUse"><stop stop-color="#010101" stop-opacity=".01"/><stop offset=".36" stop-color="#010101" stop-opacity=".36"/><stop offset=".95" stop-color="#010101"/></linearGradient><linearGradient id="paint4_linear" x1="682.726" y1="476.564" x2="799.886" y2="234.969" gradientUnits="userSpaceOnUse"><stop stop-color="#fff" stop-opacity=".01"/><stop offset=".07" stop-color="#fff" stop-opacity=".22"/><stop offset=".16" stop-color="#fff" stop-opacity=".45"/><stop offset=".25" stop-color="#fff" stop-opacity=".65"/><stop offset=".33" stop-color="#fff" stop-opacity=".8"/><stop offset=".4" stop-color="#fff" stop-opacity=".91"/><stop offset=".46" stop-color="#fff" stop-opacity=".98"/><stop offset=".51" stop-color="#fff"/></linearGradient><linearGradient id="paint5_linear" x1="604.65" y1="423.444" x2="668.846" y2="287.555" gradientUnits="userSpaceOnUse"><stop stop-color="#fff" stop-opacity=".01"/><stop offset=".07" stop-color="#fff" stop-opacity=".22"/><stop offset=".16" stop-color="#fff" stop-opacity=".45"/><stop offset=".25" stop-color="#fff" stop-opacity=".65"/><stop offset=".33" stop-color="#fff" stop-opacity=".8"/><stop offset=".4" stop-color="#fff" stop-opacity=".91"/><stop offset=".46" stop-color="#fff" stop-opacity=".98"/><stop offset=".51" stop-color="#fff"/></linearGradient><linearGradient id="paint6_linear" x1="909.972" y1="886.322" x2="920.393" y2="759.584" gradientUnits="userSpaceOnUse"><stop stop-color="#010101" stop-opacity=".01"/><stop offset=".95" stop-color="#010101"/></linearGradient><linearGradient id="paint7_linear" x1="508.259" y1="423.517" x2="505.544" y2="873.071" gradientUnits="userSpaceOnUse"><stop stop-color="#fff" stop-opacity=".01"/><stop offset=".07" stop-color="#fff" stop-opacity=".22"/><stop offset=".16" stop-color="#fff" stop-opacity=".45"/><stop offset=".25" stop-color="#fff" stop-opacity=".65"/><stop offset=".33" stop-color="#fff" stop-opacity=".8"/><stop offset=".4" stop-color="#fff" stop-opacity=".91"/><stop offset=".46" stop-color="#fff" stop-opacity=".98"/><stop offset=".51" stop-color="#fff"/></linearGradient><linearGradient id="paint8_linear" x1="254.605" y1="861.073" x2="254.705" y2="1003.31" gradientUnits="userSpaceOnUse"><stop stop-color="#010101" stop-opacity=".01"/><stop offset=".95" stop-color="#010101"/></linearGradient><linearGradient id="paint9_linear" x1="1407.02" y1="606.966" x2="1441.2" y2="199.855" gradientUnits="userSpaceOnUse"><stop stop-color="#fff" stop-opacity=".01"/><stop offset=".07" stop-color="#fff" stop-opacity=".22"/><stop offset=".16" stop-color="#fff" stop-opacity=".45"/><stop offset=".25" stop-color="#fff" stop-opacity=".65"/><stop offset=".33" stop-color="#fff" stop-opacity=".8"/><stop offset=".4" stop-color="#fff" stop-opacity=".91"/><stop offset=".46" stop-color="#fff" stop-opacity=".98"/><stop offset=".51" stop-color="#fff"/></linearGradient><linearGradient id="paint10_linear" x1="580.138" y1="496.87" x2="718.145" y2="865.142" gradientUnits="userSpaceOnUse"><stop stop-color="#fff" stop-opacity=".01"/><stop offset=".07" stop-color="#fff" stop-opacity=".22"/><stop offset=".16" stop-color="#fff" stop-opacity=".45"/><stop offset=".25" stop-color="#fff" stop-opacity=".65"/><stop offset=".33" stop-color="#fff" stop-opacity=".8"/><stop offset=".4" stop-color="#fff" stop-opacity=".91"/><stop offset=".46" stop-color="#fff" stop-opacity=".98"/><stop offset=".51" stop-color="#fff"/></linearGradient><linearGradient id="paint11_linear" x1="683.668" y1="519.99" x2="680.343" y2="802.698" gradientUnits="userSpaceOnUse"><stop stop-color="#fff" stop-opacity=".01"/><stop offset=".07" stop-color="#fff" stop-opacity=".22"/><stop offset=".16" stop-color="#fff" stop-opacity=".45"/><stop offset=".25" stop-color="#fff" stop-opacity=".65"/><stop offset=".33" stop-color="#fff" stop-opacity=".8"/><stop offset=".4" stop-color="#fff" stop-opacity=".91"/><stop offset=".46" stop-color="#fff" stop-opacity=".98"/><stop offset=".51" stop-color="#fff"/></linearGradient><linearGradient id="paint12_linear" x1="999.503" y1="711.704" x2="1018.69" y2="133.785" gradientUnits="userSpaceOnUse"><stop stop-color="#010101" stop-opacity=".01"/><stop offset=".95" stop-color="#010101"/></linearGradient><linearGradient id="paint13_linear" x1="998.651" y1="712.045" x2="1017.84" y2="134.125" gradientUnits="userSpaceOnUse"><stop stop-color="#010101" stop-opacity=".01"/><stop offset=".95" stop-color="#010101"/></linearGradient><linearGradient id="paint14_linear" x1="904.472" y1="709.354" x2="923.688" y2="131.435" gradientUnits="userSpaceOnUse"><stop stop-color="#010101" stop-opacity=".01"/><stop offset=".95" stop-color="#010101"/></linearGradient><linearGradient id="paint15_linear" x1="903.62" y1="709.694" x2="922.836" y2="131.776" gradientUnits="userSpaceOnUse"><stop stop-color="#010101" stop-opacity=".01"/><stop offset=".95" stop-color="#010101"/></linearGradient><linearGradient id="paint16_linear" x1="997.712" y1="713.545" x2="1016.93" y2="135.627" gradientUnits="userSpaceOnUse"><stop stop-color="#010101" stop-opacity=".01"/><stop offset=".95" stop-color="#010101"/></linearGradient><linearGradient id="paint17_linear" x1="903.682" y1="711.236" x2="922.87" y2="133.317" gradientUnits="userSpaceOnUse"><stop stop-color="#010101" stop-opacity=".01"/><stop offset=".95" stop-color="#010101"/></linearGradient><linearGradient id="paint18_linear" x1="951.672" y1="712.396" x2="970.888" y2="134.499" gradientUnits="userSpaceOnUse"><stop stop-color="#010101" stop-opacity=".01"/><stop offset=".95" stop-color="#010101"/></linearGradient><linearGradient id="paint19_linear" x1="953.488" y1="709.843" x2="972.704" y2="131.925" gradientUnits="userSpaceOnUse"><stop stop-color="#010101" stop-opacity=".01"/><stop offset=".95" stop-color="#010101"/></linearGradient><linearGradient id="paint20_linear" x1="608.41" y1="724.399" x2="840.643" y2="941.094" gradientUnits="userSpaceOnUse"><stop stop-color="#fff" stop-opacity=".01"/><stop offset=".07" stop-color="#fff" stop-opacity=".22"/><stop offset=".16" stop-color="#fff" stop-opacity=".45"/><stop offset=".25" stop-color="#fff" stop-opacity=".65"/><stop offset=".33" stop-color="#fff" stop-opacity=".8"/><stop offset=".4" stop-color="#fff" stop-opacity=".91"/><stop offset=".46" stop-color="#fff" stop-opacity=".98"/><stop offset=".51" stop-color="#fff"/></linearGradient><linearGradient id="paint21_linear" x1="957.277" y1="504.864" x2="955.492" y2="640.026" gradientUnits="userSpaceOnUse"><stop stop-color="#fff" stop-opacity=".01"/><stop offset=".07" stop-color="#fff" stop-opacity=".22"/><stop offset=".16" stop-color="#fff" stop-opacity=".45"/><stop offset=".25" stop-color="#fff" stop-opacity=".65"/><stop offset=".33" stop-color="#fff" stop-opacity=".8"/><stop offset=".4" stop-color="#fff" stop-opacity=".91"/><stop offset=".46" stop-color="#fff" stop-opacity=".98"/><stop offset=".51" stop-color="#fff"/></linearGradient><linearGradient id="paint22_linear" x1="957.277" y1="614.864" x2="955.492" y2="750.026" gradientUnits="userSpaceOnUse"><stop stop-color="#fff" stop-opacity=".01"/><stop offset=".07" stop-color="#fff" stop-opacity=".22"/><stop offset=".16" stop-color="#fff" stop-opacity=".45"/><stop offset=".25" stop-color="#fff" stop-opacity=".65"/><stop offset=".33" stop-color="#fff" stop-opacity=".8"/><stop offset=".4" stop-color="#fff" stop-opacity=".91"/><stop offset=".46" stop-color="#fff" stop-opacity=".98"/><stop offset=".51" stop-color="#fff"/></linearGradient><linearGradient id="paint23_linear" x1="593.437" y1="540.281" x2="593.42" y2="558.481" gradientUnits="userSpaceOnUse"><stop stop-color="#fff" stop-opacity=".01"/><stop offset=".07" stop-color="#fff" stop-opacity=".22"/><stop offset=".16" stop-color="#fff" stop-opacity=".45"/><stop offset=".25" stop-color="#fff" stop-opacity=".65"/><stop offset=".33" stop-color="#fff" stop-opacity=".8"/><stop offset=".4" stop-color="#fff" stop-opacity=".91"/><stop offset=".46" stop-color="#fff" stop-opacity=".98"/><stop offset=".51" stop-color="#fff"/></linearGradient><linearGradient id="paint24_linear" x1="512.737" y1="593.052" x2="626.168" y2="503.635" gradientUnits="userSpaceOnUse"><stop stop-color="#010101" stop-opacity=".01"/><stop offset=".95" stop-color="#010101"/></linearGradient><linearGradient id="paint25_linear" x1="562.575" y1="612.988" x2="723.852" y2="487.867" gradientUnits="userSpaceOnUse"><stop stop-color="#010101" stop-opacity=".01"/><stop offset=".95" stop-color="#010101"/></linearGradient><linearGradient id="paint26_linear" x1="667.519" y1="671.751" x2="923.684" y2="449.028" gradientUnits="userSpaceOnUse"><stop stop-color="#010101" stop-opacity=".01"/><stop offset=".95" stop-color="#010101"/></linearGradient><linearGradient id="paint27_linear" x1="776.279" y1="740.865" x2="1151.96" y2="422.45" gradientUnits="userSpaceOnUse"><stop stop-color="#010101" stop-opacity=".01"/><stop offset=".36" stop-color="#010101" stop-opacity=".36"/><stop offset=".95" stop-color="#010101"/></linearGradient><linearGradient id="paint28_linear" x1="624.537" y1="503.751" x2="807.477" y2="372.322" gradientUnits="userSpaceOnUse"><stop stop-color="#fff" stop-opacity=".01"/><stop offset=".07" stop-color="#fff" stop-opacity=".22"/><stop offset=".16" stop-color="#fff" stop-opacity=".45"/><stop offset=".25" stop-color="#fff" stop-opacity=".65"/><stop offset=".33" stop-color="#fff" stop-opacity=".8"/><stop offset=".4" stop-color="#fff" stop-opacity=".91"/><stop offset=".46" stop-color="#fff" stop-opacity=".98"/><stop offset=".51" stop-color="#fff"/></linearGradient><linearGradient id="paint29_linear" x1="638.151" y1="501.517" x2="754.009" y2="405.658" gradientUnits="userSpaceOnUse"><stop stop-color="#fff" stop-opacity=".01"/><stop offset=".07" stop-color="#fff" stop-opacity=".22"/><stop offset=".16" stop-color="#fff" stop-opacity=".45"/><stop offset=".25" stop-color="#fff" stop-opacity=".65"/><stop offset=".33" stop-color="#fff" stop-opacity=".8"/><stop offset=".4" stop-color="#fff" stop-opacity=".91"/><stop offset=".46" stop-color="#fff" stop-opacity=".98"/><stop offset=".51" stop-color="#fff"/></linearGradient><linearGradient id="paint30_linear" x1="503.738" y1="667.745" x2="541.923" y2="667.767" gradientUnits="userSpaceOnUse"><stop stop-color="#fff" stop-opacity=".01"/><stop offset=".07" stop-color="#fff" stop-opacity=".22"/><stop offset=".16" stop-color="#fff" stop-opacity=".45"/><stop offset=".25" stop-color="#fff" stop-opacity=".65"/><stop offset=".33" stop-color="#fff" stop-opacity=".8"/><stop offset=".4" stop-color="#fff" stop-opacity=".91"/><stop offset=".46" stop-color="#fff" stop-opacity=".98"/><stop offset=".51" stop-color="#fff"/></linearGradient><linearGradient id="paint31_linear" x1="430.446" y1="570.2" x2="442.097" y2="608.932" gradientUnits="userSpaceOnUse"><stop stop-color="#010101" stop-opacity=".01"/><stop offset=".95" stop-color="#010101"/></linearGradient><linearGradient id="paint32_linear" x1="455.244" y1="718.933" x2="556.146" y2="720.976" gradientUnits="userSpaceOnUse"><stop stop-color="#010101" stop-opacity=".01"/><stop offset=".95" stop-color="#010101"/></linearGradient><linearGradient id="paint33_linear" x1="858.015" y1="876.512" x2="761.922" y2="711.732" gradientUnits="userSpaceOnUse"><stop stop-color="#010101" stop-opacity=".01"/><stop offset=".95" stop-color="#010101"/></linearGradient><linearGradient id="paint34_linear" x1="859.037" y1="414.892" x2="686.151" y2="419.761" gradientUnits="userSpaceOnUse"><stop stop-color="#010101" stop-opacity=".01"/><stop offset=".95" stop-color="#010101"/></linearGradient></defs></svg>