<svg width="36" height="36" fill="none" xmlns="http://www.w3.org/2000/svg"><path fill-rule="evenodd" clip-rule="evenodd" d="M35.6226 22.2396c-.2288-.0909-.49-.034-.66.1439l-2.5625 2.6934V9.07898h.003l2.445-2.63982c.2249-.24305.2101-.62287-.0333-.8478l-.0005-.00055-.88-.81897 1.2228-1.31991c.2246-.24333.2095-.62288-.0338-.84753l-2.64-2.44483c-.2431-.22493-.6227-.21037-.8476.03296l-4.266 4.60595H6.60004c-.00193-1.65607-1.34391-2.99795-3.00009-2.99987h-.59986C1.3439 1.80053.00192 3.14241 0 4.79848V30.5966c0 .3312.26862.5998.60013.5998H9.6828l-1.26013 1.513c-.21176.2548-.17716.633.07745.8448l2.76668 2.3033c.2546.2121.633.1775.8451-.0771l.0003-.0003 3.0709-3.6892c.212-.2554.3485-.5655.3936-.8945H26.571l-3.606 3.7864c-.2282.2401-.2186.6199.0214.8481.1115.106.2596.1653.4137.1651h11.9998c.3315 0 .6001-.2686.6001-.5998V22.7971c0-.2455-.1494-.4663-.3774-.5575zM33.5597 6.05832l-1.1599 1.25454v-.88241l.7199-.77997.44.40784zM31.2 5.96v-.00851h.0071l1.0314-1.11339-1.7622-1.63025-6.1128 6.60559 1.7622 1.63026L31.2 5.96zm-6.2268 6.051l-1.3802.4026.2947-1.4075 1.0855 1.0049zm8.8951-8.93505L32.107 1.44653l-.8155.88076 1.7617 1.63107.8151-.88241zM3.00049 2.99851h.59985c.99426 0 1.80011.80579 1.80011 1.79998V27.6124c-.51636-.3971-1.14889-.6136-1.80011-.6158h-.59985c-.65149.0022-1.28375.2187-1.80011.6158V4.79849c0-.99419.80585-1.79998 1.80011-1.79998zm.59985 25.19809h-.59985c-.99426 0-1.80011.8061-1.80011 1.8h4.20007c0-.9939-.80585-1.8-1.80011-1.8zm10.66076 3.1269l-.384.4608-1.8443-1.5352.3834-.4614c.212-.2546.5902-.2892.8448-.0772.0003 0 .0003.0003.0006.0003l.922.7657c.2549.2118.2898.5899.078.8448l-.0005.0005v.0017zm-4.53161 1.6927l1.84461 1.5352 1.5353-1.8448-1.8443-1.5355-1.53561 1.8451zm5.59521-3.0196a1.78061 1.78061 0 00-.3732-.4403l-.9221-.7673c-.764-.6361-1.8989-.5326-2.535.2315l-.8141.9761H6.60022V5.99843H26.2597l-3.1841 3.44066a.58074.58074 0 00-.1068.17467c-.0072.0173-.0127.0335-.0187.05163-.0022.00687-.005.01378-.0077.02077-.0044.01119-.0088.0226-.0116.03443l-.7163 3.42451c-.0675.3243.1407.6421.465.7096a.60058.60058 0 00.2903-.0112l3.3602-.9791c.0084-.0027.016-.0065.0236-.0103.0066-.0033.0132-.0065.0201-.009.0151-.0054.0307-.0131.047-.0211.0672-.0305.1282-.0736.1799-.1266l4.5997-4.97068V26.3367l-3.486 3.6599H15.3247zm9.475 4.7994H34.8V24.2968L24.7997 34.796zm4.0008-1.1998c-.2428 0-.4617-.1461-.5545-.3702-.0928-.2241-.0415-.4823.1302-.654l4.2001-4.1994a.59896.59896 0 01.424-.1758c.3313 0 .6002.2683.6002.5998v4.1998c0 .3312-.2687.5998-.6002.5998h-4.1998zm3.5998-1.2v-2.1515l-2.1517 2.1515h2.1517zm-10.2002-9.5991h4.1998c.3315 0 .6001.2685.6001.5998 0 .3314-.2686.6-.5999.6H9.60013c-.33151 0-.60013-.2686-.60013-.6 0-.3313.26862-.5998.60013-.5998h4.19977v-6.5996a.60813.60813 0 01.1753-.4249l3.5999-3.5996c.2343-.2343.6141-.2343.8484 0l3.6 3.5996a.60746.60746 0 01.1766.4249v6.5996zm-2.048-7.1997l-2.1517-2.1515-2.1516 2.1515h4.3033zm-5.1522 1.2h6.0002v5.9997h-6.0002v-5.9997zm2.3998-7.19924H18.6v1.19994h-1.2003V9.59816zM18.6 25.1969h-1.2003v1.1999H18.6v-1.1999z" fill="#000"/></svg>