<svg width="480" height="317" fill="none" xmlns="http://www.w3.org/2000/svg"><path d="M99.0802 137.824c-24.3005.111-44.0802.468-44.0802.468s23.5112-30.906 43.992-19.456C119.473 130.287 143 137.889 143 137.889s-19.619-.176-43.9198-.065z" fill="#F2F2F2"/><path d="M371 147.292c2.761 0 5-2.239 5-5 0-2.762-2.239-5-5-5s-5 2.238-5 5c0 2.761 2.239 5 5 5z" fill="#FF6584"/><path d="M333.99 221.606l37.987-43.621 1.172 1.021-37.987 43.621-1.172-1.021z" fill="#3F3D56"/><path d="M373 186.292c4.418 0 8-3.582 8-8 0-4.419-3.582-8-8-8s-8 3.581-8 8c0 4.418 3.582 8 8 8zM349.286 205.292s15.36-19.573-4.286-33l4.286 33zM94.578 239.696c28.148 52.191 87.889 74.596 87.889 74.596s14.103-62.214-14.045-114.405-87.8888-74.595-87.8888-74.595-14.1034 62.213 14.0448 114.404z" fill="#3F3D56"/><path d="M113.621 222.752C164.431 253.408 184 314.3 184 314.3s-62.811 11.188-113.6212-19.468C19.5686 264.175 0 203.284 0 203.284s62.811-11.189 113.621 19.468z" fill="#111B47"/><path d="M315.194 223.022C264.108 253.259 244 314.042 244 314.042s62.719 11.757 113.806-18.48c51.086-30.238 71.194-91.02 71.194-91.02s-62.719-11.758-113.806 18.48z" fill="#3F3D56"/><path d="M333.739 241.512c-28.605 51.915-88.532 73.78-88.532 73.78s-13.55-62.306 15.054-114.221c28.605-51.915 88.532-73.779 88.532-73.779s13.55 62.306-15.054 114.22z" fill="#111B47"/><path d="M229.881 99.3318c-6.015-5.4427-6.857-14.5893-1.937-21.0401-.314.2947-.621.6006-.915.9258-5.779 6.3936-5.282 16.2629 1.109 22.0435 6.39 5.781 16.255 5.284 22.033-1.109.294-.3255.568-.6618.829-1.004-5.921 5.545-15.102 5.625-21.119.1838z" fill="#2F2E41"/><path d="M215.5 110.292c17.949 0 32.5-14.551 32.5-32.5003 0-17.9492-14.551-32.5-32.5-32.5-17.949 0-32.5 14.5508-32.5 32.5 0 17.9493 14.551 32.5003 32.5 32.5003z" fill="#2F2E41"/><path d="M206.238 119.323l.974-2.506-17.736 14.84-21.438 11.949s-10.915-41.629-11.694-42.399c-.78-.771-14.812-30.0655-21.049-16.1893s12.083 21.9703 12.083 21.9703.585 50.687 19.295 50.302c18.711-.386 41.903-17.153 42.293-18.695.39-1.542-2.728-19.272-2.728-19.272zM211.5 111.292c10.77 0 19.5-8.731 19.5-19.5003 0-10.7695-8.73-19.5-19.5-19.5s-19.5 8.7305-19.5 19.5c0 10.7693 8.73 19.5003 19.5 19.5003z" fill="#FFB8B8"/><path d="M214.879 106.042s5.064 6.568 3.506 7.341c-1.558.772-10.517 1.159-15.971 7.727-5.453 6.568 6.622 23.182 6.622 23.182L255 113.769l-18.697-6.182s-12.854-6.954-12.465-14.2953l-8.959 12.7503z" fill="#FFB8B8"/><path d="M277 316.292h-51.63c-2.925-21.338-4.277-40.892-4.277-40.892s-.754 19.669-2.762 40.892H152c9.403-62.841 53.978-130.985 53.978-130.985s.388-9.282 1.551-10.83c1.164-1.543-6.588-1.93-10.078-13.53-2.128-7.081-.215-11.715 1.604-14.246.624-.912 1.392-1.717 2.274-2.384 0 0 .776-8.117 0-9.278-.099-.152.666-.685 2.081-1.496 1.179-.68 2.809-1.553 4.759-2.557 11.169-5.779 32.788-16.003 40.194-19.486 1.624-.769 2.568-1.208 2.568-1.208l13.176 4.639c10.461 3.477 10.461 25.521 10.461 25.521l-.592.899-15.812 23.9-9.172 13.87c2.327 1.542-2.322 11.212-2.322 11.212s6.625 9.497 12.012 23.994c3.047 8.068 5.125 16.468 6.19 25.025.679 5.545.813 11.143.398 16.714-1.436 18.628 4.948 41.268 11.73 60.226z" fill="#2F2E41"/><path d="M263.951 116.726c-.86-.489-1.888-.569-2.812-.22-.923.349-1.647 1.093-1.978 2.032-1.154 3.208-2.323 9.896-1.906 23.801.766 25.573 1.149 43.009 1.149 43.009v38.747s-16.853 37.197-7.66 37.197c9.192 0 15.703-29.448 15.703-29.448s8.427-44.558 5.745-52.308c0 0 7.56-53.535-8.241-62.81z" fill="#FFB8B8"/><path d="M209.5 86.2917c9.113 0 16.5-5.1487 16.5-11.5 0-6.3512-7.387-11.5-16.5-11.5s-16.5 5.1488-16.5 11.5c0 6.3513 7.387 11.5 16.5 11.5zM236 65.2917c8.837 0 16-7.1634 16-16 0-8.8365-7.163-16-16-16s-16 7.1635-16 16c0 8.8366 7.163 16 16 16z" fill="#2F2E41"/><path d="M247 60.6764c-8.318-.0012-15.248-6.2545-15.94-14.3847-.037.4316-.06.8669-.06 1.3077 0 8.6667 7.163 15.6923 16 15.6923s16-7.0256 16-15.6923c0-.4408-.023-.876-.06-1.3077-.692 8.1303-7.622 14.3835-15.94 14.3847z" fill="#2F2E41"/><path d="M230.389 88.3101c.729-.174.997-1.665.599-3.3302-.397-1.6652-1.31-2.874-2.039-2.7-.729.174-.997 1.665-.599 3.3302s1.311 2.874 2.039 2.7z" fill="#FFB8B8"/><path d="M230 88.2917c.552 0 1-.4477 1-1 0-.5522-.448-1-1-1s-1 .4478-1 1c0 .5523.448 1 1 1z" fill="#F2F2F2"/><path fill-rule="evenodd" clip-rule="evenodd" d="M40 147.792c0 3.59 2.9101 6.5 6.5 6.5 3.5882-.004 6.496-2.912 6.5-6.5 0-3.59-2.9101-6.5-6.5-6.5s-6.5 2.91-6.5 6.5zm1.0833 0c0-2.992 2.4252-5.417 5.4167-5.417 2.9901.004 5.4132 2.427 5.4167 5.417 0 2.991-2.4252 5.416-5.4167 5.416s-5.4167-2.425-5.4167-5.416zM304 108.292h14V94.2917h-14v14.0003zm12.923-1.077h-11.846V95.3687h11.846v11.8463z" fill="#3F3D56"/><path d="M436.08 180.824c-24.3.111-44.08.468-44.08.468s23.511-30.906 43.992-19.456C456.473 173.287 480 180.889 480 180.889s-19.619-.176-43.92-.065zM361.08 75.8243c-24.3.1112-44.08.4674-44.08.4674s23.511-30.9058 43.992-19.4554C381.473 68.2867 405 75.8893 405 75.8893s-19.619-.1761-43.92-.065zM131.358 89.4247L75.2363 60.4528c-3.8324-1.9784-5.3417-6.7012-3.371-10.5487l13.2215-25.8132c.388-.7576 1.0691-1.3217 1.8837-1.5602L131.205 9.58216c3.672-1.07504 7.541.92204 8.806 4.54624l14.534 41.6208c.734 2.1013.575 4.4129-.439 6.3931l-12.241 23.8981c-.946 1.8477-2.585 3.2422-4.555 3.8769a7.77587 7.77587 0 01-5.952-.4926z" fill="#F2F2F2"/><path opacity=".1" d="M133.347 79.8677l-56.5415-24.241c-1.8219-.9408-.1136.5053.8232-1.3243l7.1076-29.0107L154 61.0591l-17.511 21.7435c-.936 1.8295-1.32-1.9941-3.142-2.9349z" fill="#000"/><path d="M86.1565 62.9324c-4.0205-2.0675-5.6039-7.0028-3.5364-11.0233L101.66 14.8822c2.067-4.0206 7.002-5.60391 11.023-3.5365l37.027 19.0397c4.02 2.0674 5.604 7.0027 3.536 11.0233l-19.039 37.0269c-2.068 4.0205-7.003 5.6039-11.024 3.5365L86.1565 62.9324z" fill="#111B47"/><path opacity=".1" d="M145 56.8773l-14.542 28.4144L79 58.7057l14.542-28.414 19.335 25.7877 32.123.7979z" fill="#000"/><path d="M112.252 57.9485L87.2877 24.8939c-.3139-.4156-.82-.641-1.3397-.5966-.5198.0443-.9802.3522-1.2187.8149L70.5238 52.6678c-.5739 1.1133-.681 2.4085-.2976 3.6006.3834 1.1921 1.2259 2.1835 2.3421 2.756L134.46 90.7693c1.117.5725 2.415.6792 3.61.2968 1.195-.3825 2.189-1.2228 2.763-2.3362l13.962-27.0835c.291-.5647.271-1.239-.054-1.785-.325-.5461-.908-.8871-1.545-.9028l-40.944-1.0101zM107.412 14.6239l14.427 7.4184-1.049 2.0402-14.427-7.4184 1.049-2.0402zM102.425 21.4564l42.843 22.0305-.599 1.1658-42.843-22.0305.599-1.1658zM100.402 25.391l42.843 22.0305-.6 1.1658-42.8427-22.0305.5997-1.1658z" fill="#F2F2F2"/><path d="M98.3786 29.3256L141.222 51.356l-.6 1.1658-42.8429-22.0304.5995-1.1658z" fill="#F2F2F2"/><path d="M113.073 12.5735c1.7-3.30574.403-7.36109-2.897-9.05786-3.299-1.69677-7.352-.39244-9.052 2.91332-1.7002 3.30575-.403 7.36114 2.897 9.05784 3.299 1.6968 7.352.3925 9.052-2.9133z" fill="#fff"/><path fill-rule="evenodd" clip-rule="evenodd" d="M99.8874 5.63415c2.0206-3.92841 6.8456-5.47546 10.7766-3.45543 3.919 2.02907 5.464 6.84108 3.457 10.77068-2.021 3.9284-6.846 5.4754-10.776 3.4554-3.9308-2.0201-5.4786-6.84224-3.4576-10.77065zm1.9326 1.17926l1.772 5.51999 9.949-3.18448-.497-1.54828-8.398 2.69286-1.277-3.97681-1.549.49672z" fill="#57B894"/></svg>