<svg width="540" height="389" fill="none" xmlns="http://www.w3.org/2000/svg"><path d="M540 233.484c0 67.655-40.294 91.277-90 91.277s-90-23.622-90-91.277 90-153.7225 90-153.7225 90 86.0675 90 153.7225z" fill="#F2F2F2"/><path d="M446.955 314.639l.916-56.676L486 187.848l-37.985 61.225.412-25.484 26.278-50.728-26.17 43.984.741-45.834 28.14-40.386-28.024 33.179.463-84.0425-2.908 111.2575.239-4.59-28.61-44.018 28.151 52.829-2.666 51.188-.079-1.359L411 198.747l32.882 51.122-.333 6.401-.06.097.027.525-6.763 129.869h9.036l1.084-67.079 32.802-50.998-32.72 45.955z" fill="#3F3D56"/><path d="M49 346.172c0 18.226-10.969 24.589-24.5 24.589S0 364.398 0 346.172c0-18.225 24.5-41.411 24.5-41.411S49 327.947 49 346.172z" fill="#F2F2F2"/><path d="M23.5881 367.263l.244-15.323L34 332.983l-10.1295 16.553.1098-6.89 7.0077-13.715-6.9785 11.892.1974-12.392 7.5042-10.918-7.4729 8.97.1234-22.722-.7756 30.079.0633-1.24-7.6292-11.901 7.5069 14.283-.7106 13.839-.0211-.367L14 335.93l8.7682 13.821-.0887 1.731-.0157.026.0071.142-1.8038 35.111h2.4101l.2888-18.135 8.7476-13.788-8.7255 12.425z" fill="#3F3D56"/><path d="M3 387.261h489" stroke="#3F3D56" stroke-width="2"/><path d="M493 370.996c0 12.427-7.387 16.765-16.5 16.765-.211 0-.422-.002-.632-.007-.423-.009-.841-.029-1.254-.057-8.224-.582-14.614-5.144-14.614-16.701 0-11.96 15.284-27.051 16.432-28.168l.002-.002c.044-.043.066-.065.066-.065S493 358.57 493 370.996z" fill="#111B47"/><path d="M475.712 385.867l6.107-8.434-6.123 9.36-.016.968c-.427-.009-.85-.029-1.269-.057l.659-12.434-.005-.097.011-.018.062-1.174-6.138-9.383 6.157 8.502.014.249.498-9.395-5.255-9.695 5.319 8.046.518-19.477.002-.067v.065l-.087 15.359 5.232-6.089-5.253 7.412-.138 8.412 4.884-8.073-4.905 9.311-.077 4.676L483 362.598l-7.117 12.868-.171 10.401z" fill="#3F3D56"/><rect x="313" y="88.7615" width="6" height="47" rx="2.29166" fill="#3F3D56"/><rect x="124" y="51.7615" width="3" height="15" rx="1.5" fill="#3F3D56"/><rect x="124" y="79.7615" width="4" height="27" rx="1.6946" fill="#3F3D56"/><rect x="124" y="116.761" width="3" height="27" rx="1.5" fill="#3F3D56"/><rect x="126" y=".76148" width="190" height="386" rx="35.694" fill="#3F3D56"/><rect x="202" y="12.7615" width="27" height="5" rx="2.5" fill="#E6E8EC"/><path d="M236 17.7615c1.657 0 3-1.3432 3-3 0-1.6569-1.343-3-3-3s-3 1.3431-3 3c0 1.6568 1.343 3 3 3z" fill="#E6E8EC"/><path d="M305 25.8511V361.677c-.002 8.333-6.777 15.086-15.133 15.084H153.133c-8.356.002-15.131-6.751-15.133-15.084V25.8511c0-4.0021 1.594-7.8404 4.432-10.6703 2.838-2.83 6.687-4.4197 10.701-4.4193h20.461v2.6204c.002 6.8614 5.58 12.4232 12.461 12.4252h69.537c6.882 0 12.461-5.5629 12.461-12.4252v-2.6204h21.814c4.014-.0004 7.863 1.5893 10.701 4.4193C303.406 18.0107 305 21.849 305 25.8511z" fill="#fff"/><path fill="#F2F2F2" d="M138 88.7615h167v192H138z"/><path d="M150 306.761l-.87-.779c-3.09-2.817-5.129-4.646-5.129-6.923-.016-.876.326-1.72.948-2.342.621-.621 1.47-.965 2.351-.955 1.043.005 2.03.466 2.7 1.259.67-.793 1.657-1.254 2.7-1.259.881-.01 1.73.334 2.351.955.622.622.964 1.466.948 2.342 0 2.277-2.039 4.106-5.129 6.923l-.87.779z" fill="#FF6584"/><path d="M181 304.299l1.734.462c.629-1.701 2.116-3.005 3.975-3.484 1.859-.479 3.852-.072 5.327 1.088l-2.649 2.396H196v-6l-2.665 2.385c-1.935-1.584-4.594-2.156-7.077-1.521-2.482.635-4.458 2.39-5.258 4.674z" fill="#F2F2F2"/><path d="M148.5 74.7615c4.142 0 7.5-3.3579 7.5-7.5 0-4.1422-3.358-7.5-7.5-7.5-4.142 0-7.5 3.3578-7.5 7.5 0 4.1421 3.358 7.5 7.5 7.5zM162 62.7615h72v9h-72z" fill="#111B47"/><path fill="#F2F2F2" d="M143 319.761h72v9h-72zM144 338.761h151v9H144zM174 306.761l-1.844-3.286c.912-2.23.073-4.803-1.967-6.035-2.04-1.232-4.659-.747-6.143 1.138-1.483 1.884-1.378 4.593.246 6.353 1.624 1.76 4.272 2.035 6.211.643l3.497 1.187z"/><path d="M206.555 133.212c-5.705 1.179-10.713 4.6-13.921 9.51-3.209 4.909-4.356 10.905-3.188 16.669l4.531 22.37 5.074-1.048.358-2.371 1.063 2.077 30.846-6.377.358-2.371 1.063 2.077 4.261-.881-4.532-22.371c-1.167-5.763-4.553-10.822-9.413-14.064-4.859-3.241-10.795-4.4-16.5-3.22z" fill="#2F2E41"/><path d="M245.647 201.761L272 217.948l-3.294 7.813L244 214.041l1.647-12.28z" fill="#9F616A"/><path d="M211.906 220.4s-53.514 0-62.341 13.761c-8.827 13.761-1.655 33.026 25.93 37.43 27.584 4.403 111.442 6.605 118.062-9.908 6.621-16.513 1.656-25.871 1.656-25.871s-28.689-19.816-83.307-15.412z" fill="#111B47"/><path d="M258.606 233.747L288 244.761s12.202-8.811 6.101-18.724c-6.101-9.914-33.832-67.19-33.832-67.19s-7.764-11.015 2.219-17.073 13.865 3.855 13.865 3.855-.554 2.203 3.328.551c3.882-1.652 11.093 3.855 7.21 12.667-3.882 8.812-6.655 11.015 1.664 10.464 3.004-.199 5.647-2.337 7.797-4.988 4.122-5.08 2.282-9.172 1.97-15.689-.534-11.163-1.408-18.441-4.221-22.831-3.882-6.058-9.428-11.015-23.848-8.261-14.42 2.753-35.496 16.522-30.504 36.348 4.991 19.827 16.084 41.856 16.084 41.856s7.764 30.841 2.773 38.001z" fill="#111B47"/><path opacity=".1" d="M259 233.538c-4.762 1.314-10.743 1.954-17.18 2.153-11.233.348-23.877-.646-33.975-1.772-10.908-1.22-18.845-2.589-18.845-2.589 3.687-3.445 9.354-4.808 16.012-5.305 8.268-.619 18.068.088 27.531-.216 3.489-.122 6.981.141 10.412.784 10.44 1.993 16.045 6.945 16.045 6.945z" fill="#000"/><path d="M211.5 173.761c8.56 0 15.5-6.939 15.5-15.5 0-8.56-6.94-15.5-15.5-15.5-8.56 0-15.5 6.94-15.5 15.5 0 8.561 6.94 15.5 15.5 15.5z" fill="#9F616A"/><path d="M209.253 170.873s2.722 10.555 0 11.111c-2.721.555-9.253 3.333-9.253 3.333l8.165 3.333 15.24 14.445 13.063 6.666 6.532-2.222v-12.222l-9.797-15.556s-6.532 2.223-8.165-5c-1.633-7.222-4.899-10-4.899-10l-10.886 6.112z" fill="#9F616A"/><path d="M205.355 185.761h-6.616s-11.58 3.837-18.196 12.607c-6.617 8.769-17.093 17.539-17.093 17.539s-7.168 9.866-3.309 23.568c3.86 13.702 9.374 23.568 14.336 20.828 4.963-2.741-7.168-22.472-7.168-22.472l3.309-12.058s17.093-19.732 24.261-19.184c7.168.548 7.719 6.577 7.719 6.577l15.439 4.385L223 207.137l-2.757-10.962-14.888-10.414z" fill="#9F616A"/><path d="M244.775 220.999c-1.036 1.772-1.796 3.691-2.253 5.691-.684 2.954-1.063 5.971-1.129 9.002-11.173.344-23.748-.639-33.792-1.754-.888-2.359-1.864-5.074-2.817-7.81-2.572-7.396-4.962-14.944-4.962-16.053 0-2.185 11.513 1.639 14.254 1.093 2.741-.547 3.837-9.286 0-13.655C210.238 193.143 199 185.77 199 185.77l3.837-1.093s8.498 6.281 26.04 16.659c17.543 10.378 10.416-6.008 10.416-6.008l-10.142-15.567h4.386s8.497 14.475 12.883 21.029c4.386 6.554 2.741 13.109-1.645 20.209z" fill="#3F3D56"/><path d="M194.366 143.663l27.916-5.713 3.506 17.13-27.916 5.713-3.506-17.13z" fill="#2F2E41"/><path d="M282.5 140.761c4.694 0 8.5-3.805 8.5-8.5 0-4.694-3.806-8.5-8.5-8.5s-8.5 3.806-8.5 8.5c0 4.695 3.806 8.5 8.5 8.5z" fill="#3F3D56"/><path d="M282.5 136.761c2.485 0 4.5-2.014 4.5-4.5 0-2.485-2.015-4.5-4.5-4.5s-4.5 2.015-4.5 4.5c0 2.486 2.015 4.5 4.5 4.5z" fill="#fff"/><path d="M39.4672 226.761l-.5737 4.328c-.1941 1.465-.3884 2.931-.493 4.405-.3478 4.903.3006 9.825.1299 14.737-.1313 3.781-.7479 7.56-.4501 11.332.2635 3.337 1.2354 6.576 2.2018 9.787l1.3813 4.589c.0229.278.1772.529.4171.68.24.151.5383.184.8067.089L49 276.167c-.3915-1.754-.8269-3.582-1.0373-5.365-.1663-1.411-.2663-2.828-.3707-4.244-.3253-4.413-.6936-8.824-1.0618-13.235l-.647-7.748c-.2806-3.361-.5646-6.742-1.4305-10.006-.863-3.304-2.5796-6.337-4.9855-8.808z" fill="#111B47"/><path opacity=".1" d="M39.4672 226.761l-.5737 4.328c-.1941 1.465-.3884 2.931-.493 4.405-.3478 4.903.3006 9.825.1299 14.737-.1313 3.781-.7479 7.56-.4501 11.332.2635 3.337 1.2354 6.576 2.2018 9.787l1.3813 4.589c.0229.278.1772.529.4171.68.24.151.5383.184.8067.089L49 276.167c-.3915-1.754-.8269-3.582-1.0373-5.365-.1663-1.411-.2663-2.828-.3707-4.244-.3253-4.413-.6936-8.824-1.0618-13.235l-.647-7.748c-.2806-3.361-.5646-6.742-1.4305-10.006-.863-3.304-2.5796-6.337-4.9855-8.808z" fill="#000"/><path d="M50.8466 376.201c-.3563.699-.6664 1.42-.9283 2.159-.6948 2.04-.7998 4.227-.8986 6.381-.0475.415-.0089.836.1132 1.236.297.774 1.1531 1.166 1.9533 1.381 3.3516.902 6.8854.053 10.3422-.256 3.3929-.304 6.8492-.084 10.1724-.833.4912-.092.9659-.257 1.4087-.489a4.38033 4.38033 0 001.78-2.326c.1011-.244.1691-.501.2021-.764.1098-1.133-.8773-2.117-1.9524-2.49-1.0751-.372-2.2441-.311-3.3759-.427-4.7865-.492-8.6478-4.135-9.4183-8.887-.0401-.247-5.5963-.101-6.1811.22-.6845.375-1.0988 1.313-1.4844 1.947-.6231 1.023-1.2007 2.073-1.7329 3.148z" fill="#3F3D56"/><path opacity=".1" d="M50.8466 376.201c-.3563.699-.6664 1.42-.9283 2.159-.6948 2.04-.7998 4.227-.8986 6.381-.0475.415-.0089.836.1132 1.236.297.774 1.1531 1.166 1.9533 1.381 3.3516.902 6.8854.053 10.3422-.256 3.3929-.304 6.8492-.084 10.1724-.833.4912-.092.9659-.257 1.4087-.489a4.38033 4.38033 0 001.78-2.326c.1011-.244.1691-.501.2021-.764.1098-1.133-.8773-2.117-1.9524-2.49-1.0751-.372-2.2441-.311-3.3759-.427-4.7865-.492-8.6478-4.135-9.4183-8.887-.0401-.247-5.5963-.101-6.1811.22-.6845.375-1.0988 1.313-1.4844 1.947-.6231 1.023-1.2007 2.073-1.7329 3.148z" fill="#000"/><path d="M59.8466 376.201c-.3563.699-.6664 1.42-.9283 2.159-.6948 2.04-.7998 4.227-.8986 6.381-.0475.415-.0089.836.1132 1.236.297.774 1.1531 1.166 1.9533 1.381 3.3516.902 6.8854.053 10.3422-.256 3.3929-.304 6.8492-.084 10.1724-.833.4912-.092.9659-.257 1.4087-.489a4.38033 4.38033 0 001.78-2.326c.1011-.244.1691-.501.2021-.764.1098-1.133-.8773-2.117-1.9524-2.49-1.0751-.372-2.2441-.311-3.3759-.427-4.7865-.492-8.6478-4.135-9.4183-8.887-.0401-.247-5.5963-.101-6.1811.22-.6845.375-1.0988 1.313-1.4844 1.947-.6231 1.023-1.2007 2.073-1.7329 3.148z" fill="#3F3D56"/><path d="M82.9989 321.716c.0702 11.047-3.1113 21.844-6.8429 32.228-1.4774 4.11-3.0451 8.185-4.7031 12.224-.9816 2.393-2.0876 5.049-1.0357 7.412-3.027-1.163-6.1263-1.851-9.3219-1.313 1.2164-2.504 1.102-5.418 1.1562-8.205.1056-3.784.509-7.554 1.2064-11.274 1.0704-5.66 2.9069-11.144 5.4578-16.298.5171-1.087.8736-2.244 1.0578-3.436.3312-2.649.1788-5.337-.4496-7.931-1.166-5.746-3.3795-11.223-6.5277-16.152-.01.109-.0201.221-.0321.33a48.5897 48.5897 0 01-.821 4.889c-.7146 3.422-1.5476 6.845-1.4232 10.285.134 3.648-.0899 7.301-.6684 10.904-.1837 1.416-.5487 2.802-1.0859 4.123-.3493.79-.8049 1.534-1.08 2.353-.2728.947-.4153 1.927-.4235 2.913-.4075 8.318-.006 18.962 1.6781 27.117-2.838-.132-5.6582.516-8.1596 1.876-2.0354-5.798-3.3321-14.035-4.3017-20.142-1.0979-7.214-.8747-14.571.6584-21.704.4769-2.38.6556-4.811.532-7.236-.2168-4.83-1.3931-9.554-2.5613-14.243-.5942-2.379-1.1883-4.759-1.7825-7.14-.8451-3.391-1.6915-6.783-2.5392-10.175-.5621-2.256-1.1301-4.561-.9535-6.882.1241-1.272.3887-2.526.7889-3.739 1.2645-4.128 3.155-8.033 5.6043-11.576 9.7534.554 19.6253-.369 29.3646-1.125.4736-.094.9651-.01 1.3811.237.3306.341.5275.791.554 1.267 1.2204 6.979 2.4402 13.957 3.6593 20.936.5937 2.914.9422 5.874 1.0418 8.847.018 2.964-.4577 5.917-.3473 8.878.1485 3.989.8953 7.761.9194 11.752z" fill="#2F2E41"/><path opacity=".1" d="M63 309.942c-.194 1.62-.4732 3.228-.8366 4.819-2.1619-3.652-4.4915-7.213-6.4816-10.957-.5134-.965-1.0022-1.942-1.4931-2.917-.4888-.975-.9777-1.95-1.4665-2.925-.2741-.548-.5502-1.097-.7977-1.659-.4043-.808-.7144-1.659-.9245-2.535.724-.13 2.5076 1.776 3.0434 2.274 1.0993 1.059 2.1372 2.176 3.1089 3.348 1.1758 1.3 2.2551 2.68 3.2296 4.13 1.2455 1.977 2.1313 4.15 2.6181 6.422z" fill="#000"/><path d="M72 208.377s-5.5514 8.961-4.5234 10.837C68.5047 221.089 50 217.546 50 217.546s10.0748-8.961 9.0467-12.712C58.0187 201.083 72 208.377 72 208.377z" fill="#EFB7B9"/><path d="M66.5 210.761c6.9036 0 12.5-5.596 12.5-12.5 0-6.903-5.5964-12.5-12.5-12.5s-12.5 5.597-12.5 12.5c0 6.904 5.5964 12.5 12.5 12.5z" fill="#EFB7B9"/><path d="M71.8634 216.975c-1.3347-1.845-3.1466-3.298-5.2439-4.204a19.00953 19.00953 0 00-3.7254-.913l-4.9749-.869c-1.2192-.213-2.5242-.417-3.6553.083-.5781.29-1.1045.673-1.558 1.132-1.7292 1.591-3.4049 3.341-5.5728 4.259-.5935.251-1.2142.435-1.8068.689-2.4256 1.038-4.2392 3.204-5.2696 5.62-1.081 2.535-1.1123 5.282-1.027 8.033-.0027.95.0913 1.897.2805 2.828.251.885.5663 1.752.9436 2.592.687 1.795 1.2624 3.63 1.7229 5.495 1.2888 4.901 2.3603 9.853 3.2144 14.854.0745.719.2873 1.417.6269 2.056.48.637 1.0609 1.191 1.7199 1.642.5218.429 1.0041.904 1.4413 1.419.2132.219.3696.487.4554.78.1614.74-.4963 1.373-1.0301 1.913-1.1089 1.124-1.9105 2.51-2.3287 4.029-.2605.311-.3927.709-.3699 1.113.1068.28.1465.581.1162.879-.1024.271-.2623.518-.4689.724-.4811.622-.6696 1.42-.5174 2.19 3.8651 1.668 8.0015 2.631 12.2104 2.84 1.0307.048 2.0654.048 3.0894.173.7304.09 1.4519.243 2.1828.327 1.0633.099 2.1321.126 3.1991.081 5.55-.109 11.2629-.252 16.3594-2.438.4801-2.597-.5542-5.243-1.203-7.804-1.0318-4.072-1.2918-8.296-2.0595-12.425-.5254-2.827-1.2886-5.608-1.7262-8.449s-.5402-5.787.2459-8.553c.6967-2.451.9069-4.947 1.629-7.39.7221-2.444 1.2281-5.094.4129-7.509-1.0107-2.994-4.1384-5.362-7.3126-5.197z" fill="#111B47"/><path d="M77.8375 192.258c.6091-2.184-.5888-4.458-2.0219-6.232-1.5399-1.907-3.5296-3.627-5.9591-4.105-1.9744-.39-4.0203.08-6.0278-.076-1.7794-.139-3.4844-.765-5.2546-.99-1.6013-.169-3.2191-.109-4.8028.179-1.5054.215-2.9767.619-4.3781 1.201-5.3323 2.32-8.4567 8.049-9.1817 13.732-.725 5.683.5463 11.408 1.81 16.999l1.1423 5.054c1.1889 5.26 2.3819 10.548 2.7 15.927.3181 5.379-.2754 10.902-2.5289 15.814 7.286-3.842 12.9313-10.119 15.915-17.693.8103-2.08 1.4102-4.239 2.3077-6.284.7723-1.76 1.7609-3.427 2.4453-5.221.772-2.027 1.1426-4.181 1.0921-6.344-.039-1.627-.3161-3.245-.2678-4.871.0483-1.626.4695-3.323 1.6141-4.498 1.0175-1.046 2.4632-1.548 3.7743-2.206 2.0619-1.039 3.8632-2.515 5.274-4.321.8255-1.056.8695-1.507 1.0795-2.726.2042-1.185.9477-2.189 1.2684-3.339z" fill="#2F2E41"/><path d="M77.8934 284.677c.1271 1.292-.1073 2.616.175 3.882.2121.952.705 1.817.9948 2.749.2878 1.079.4358 2.19.4405 3.307.0419.937-.03 2.076-.8579 2.515-.3636.193-.7997.196-1.1782.358-.3784.162-.7031.621-.4864.971.1822.294.5958.298.9348.368.339.069.712.421.5153.705a.6.6 0 01-.302.193c-.3466.104-.6748.262-.9725.468-.301.215-.4558.58-.4003.946a.583.583 0 00.3238.396c.1631.076.3517.071.5114-.011-.1519.325-.2349.677-.2437 1.036 1.3247.57 2.8158-.176 4.0625-.901.5407-.299 1.0626-.632 1.563-.995 2.0383-1.575 3.1661-4.057 3.0126-6.629-.0577-.638-.1555-1.271-.2925-1.897a29.1344 29.1344 0 00-.7642-3.222c-.3564-1.116-.8463-2.185-1.2664-3.279-.8952-2.331-1.4715-4.772-2.2776-7.135-.0233-.228-.1407-.437-.3239-.575-.1832-.138-.4156-.193-.6413-.153a9.4926 9.4926 0 00-2.7032.249c-.5345.157-1.4112.5-1.6508 1.06-.2159.505.1459.957.3755 1.39a11.55268 11.55268 0 011.4517 4.204z" fill="#EFB7B9"/><path opacity=".1" d="M77.3143 222.761c.2581.269.4743.578.6409.914 1.719 3.202 1.7408 7.034 1.8216 10.687.091 4.112.3106 8.22.5302 12.327l.6568 12.283c.0627 1.174.1256 2.349.2862 3.512.7726.2.8046 1.223.715 2.034-.553 5.013-1.9291 10.173-.488 14.996.0551.249.1711.479.337.669-.7264-.235-1.5041-.246-2.2364-.031-.7184.155-1.4091.424-2.1249.591-.9109.213-1.9435.304-2.5649 1.018-.7022-2.167-1.2614-4.38-1.6738-6.625-.3411-2.04-.434-4.16-1.245-6.055-.3275-.766-.765-1.475-1.1642-2.204-2.1004-3.834-3.1288-8.17-4.1339-12.444-.4512-2.027-.5594-4.118-.3198-6.182.1428-.942.2266-1.892.251-2.845-.064-1.005-.1926-2.005-.3848-2.993-.4243-2.897-.2256-5.855.5823-8.666.7527-2.61 1.4126-5.356 2.9866-7.548 1.5741-2.193 4.8722-3.401 7.5281-3.438z" fill="#000"/><path d="M77.3143 221.761c.2581.269.4743.578.6409.914 1.719 3.202 1.7408 7.034 1.8216 10.687.091 4.112.3106 8.22.5302 12.327l.6568 12.283c.0627 1.174.1256 2.349.2862 3.512.7726.2.8046 1.223.715 2.034-.553 5.013-1.9291 10.173-.488 14.996.0551.249.1711.479.337.669-.7264-.235-1.5041-.246-2.2364-.031-.7184.155-1.4091.424-2.1249.591-.9109.213-1.9435.304-2.5649 1.018-.7022-2.167-1.2614-4.38-1.6737-6.625-.3412-2.04-.4341-4.16-1.2451-6.055-.3275-.766-.765-1.475-1.1642-2.204-2.1004-3.834-3.1288-8.17-4.1339-12.444-.4512-2.027-.5594-4.118-.3198-6.182.1428-.942.2266-1.892.251-2.845-.064-1.005-.1926-2.005-.3848-2.993-.4243-2.897-.2256-5.855.5823-8.666.7527-2.61 1.4126-5.356 2.9866-7.548 1.5741-2.193 4.8722-3.401 7.5281-3.438z" fill="#111B47"/><g opacity=".1" fill="#000"><path d="M75.697 185.342c-1.5351-1.921-3.5185-3.653-5.9404-4.135-1.9683-.392-4.0077.081-6.0089-.077-1.7738-.139-3.4734-.77-5.2381-.997-1.5963-.17-3.209-.109-4.7877.181-1.5008.217-2.9674.623-4.3644 1.209-.7549.333-1.4754.739-2.1512 1.211 1.2454-.468 2.5375-.803 3.8544-.999 1.5787-.289 3.1914-.35 4.7876-.18 1.7647.227 3.4644.858 5.2382.997 2.0011.158 4.0406-.315 6.0088.076 2.4219.483 4.4054 2.215 5.9404 4.135 1.4287 1.787 2.6229 4.077 2.0156 6.277-.3197 1.158-1.0608 2.17-1.2644 3.364-.2093 1.227-.2531 1.681-1.0761 2.745-1.0592 1.368-2.3404 2.552-3.7912 3.503.4003-.189.8036-.374 1.195-.572 2.0554-1.047 3.8511-2.534 5.2574-4.353.823-1.064.8668-1.518 1.0761-2.745.2036-1.194.9447-2.205 1.2645-3.364.6072-2.2-.5869-4.489-2.0156-6.276zM66.3521 204.301c.2146-.22.4482-.422.6982-.602-1.1932.574-2.4484 1.078-3.3594 2.024-1.141 1.184-1.5609 2.893-1.609 4.53-.0482 1.638.2281 3.268.2669 4.906.0504 2.179-.3191 4.348-1.0886 6.39-.6823 1.807-1.6678 3.486-2.4376 5.259-.8948 2.06-1.4927 4.234-2.3005 6.329-2.5802 6.613-7.1621 12.27-13.1155 16.193-.0303.069-.0575.138-.0885.206 7.2633-3.87 12.8908-10.192 15.8652-17.821.8078-2.095 1.4058-4.269 2.3005-6.329.7698-1.772 1.7553-3.451 2.4376-5.259.7695-2.041 1.139-4.21 1.0886-6.39-.0388-1.638-.315-3.268-.2669-4.905.0481-1.638.468-3.347 1.609-4.531z"/></g><path d="M338.525 385.583c-.6.682-1.628.819-2.558.909-1.202.164-2.421.186-3.628.066-1.434-.201-2.294.566-3.604-.024-.793-.357-2.013.357-2.806 0-1.086-.49-4.838-.591-5.5-1.546-.661-.955-.594-2.464.452-3.028.297-.133.603-.245.916-.337 1.751-.656 5.299-5.603 7.162-5.856.924-.041 1.842.163 2.65.587 1.837.768 5.08 1.374 5.882 3.321.624 1.518 2.333 4.425 1.034 5.908zM351.47 386.161c.593.722 1.609.868 2.529.963 1.187.173 2.392.197 3.585.069 1.418-.213 3.146 1.014 4.441.389.784-.378 1.99-.181 2.773-.559 1.074-.518 6.124.637 6.778-.374.653-1.011.587-2.609-.447-3.206-.293-.14-.596-.26-.906-.357-1.731-.695-7.455-7.051-9.297-7.319-.914-.043-1.821.173-2.62.622-1.815.813-5.022 1.454-5.814 3.517-.617 1.606-2.306 4.685-1.022 6.255z" fill="#2F2E41"/><path d="M357.088 273.604c.565 1.078 1.059 2.19 1.478 3.332 5.015 13.161 5.435 27.543 5.643 41.612-.018 2.287.114 4.573.394 6.844.21 1.44.542 2.895.328 4.334-.185 1.245-.776 2.472-.54 3.708.105.555.373 1.069.479 1.623.081.608.064 1.225-.05 1.828l-.673 4.962c-.383 2.827-1.267 5.55-1.219 8.402.033 1.946.066 3.895.285 5.828.221 1.964.634 3.912.655 5.888.016 1.479-.188 2.951-.32 4.424-.186 2.082-.228 4.173-.126 6.26.078 1.608.264 3.277 1.124 4.643-.963 1.37-1.917 2.597-3.459 3.268-3.134 1.363-6.729.901-10.115.413.187-.62.478-1.322.207-1.911-.159-.285-.355-.549-.581-.785-.739-1.043-1.253-2.226-1.507-3.476-.41-1.481-.82-3.076.021-4.498.29-.507.418-1.088.367-1.669-.701-9.329-2.793-18.982-.866-28.139.206-.977.451-1.949.566-2.941.103-1.426.12-2.858.051-4.287l-.04-1.989c-.101-2.122-.014-4.297-.443-6.397-.307-1.503-.881-3.014-.174-4.546.313-.712.274-1.527-.105-2.207-1.487-2.585-2.683-5.324-3.567-8.169-.184-.795-.435-1.573-.751-2.325-.432-.794-.928-1.55-1.483-2.264-1.678-2.413-2.682-5.214-3.667-7.978.105-.254.025-.607-.249-.57-.271.068-.504.24-.647.478-1.349 1.8-1.462 4.2-1.523 6.442-.103 2.083-.067 4.171.107 6.249.116 1.089.307 2.169.406 3.26.129 2.034.096 4.076-.098 6.106l-.689 9.987c-.093.826-.043 1.661.148 2.47.443 1.4.658 2.86.639 4.327-.181 6.033.344 12.066 1.567 17.979.336 1.632.725 3.254 1.011 4.896.673 3.869.765 7.812.856 11.738.055 2.413.095 4.914-.864 7.133-.374.684-.649 1.417-.816 2.178-.004.392-.056.783-.157 1.162-.281.718-1.125 1.024-1.885 1.188-1.426.308-2.889.411-4.345.307-.342-.005-.679-.08-.991-.218-.543-.279-.831-.871-1.244-1.318-.891-.965-2.372-1.261-3.183-2.292-1.015-1.29-.589-3.159.015-4.682.604-1.522 1.352-3.176.832-4.728-.613-1.83-2.785-2.816-3.368-4.655 1.664-7.419-2.423-15.093-2.073-22.685.082-1.769.391-3.524.397-5.295.016-4.56-1.975-8.997-1.648-13.546.833-11.559-3.136-23.099-4.818-34.567-.318-1.712-.437-3.454-.354-5.193.249-2.87 1.593-5.542 3.208-7.936 1.158-1.716 2.55-3.395 4.468-4.197 1.579-.661 3.348-.659 5.062-.645 4.276.033 8.552.065 12.827.142 2.91-.041 5.816.217 8.672.769 2.313.525 4.476 1.595 6.825 1.928z" fill="#2F2E41"/><path d="M288.641 220.886c-.429-2.07.382-4.285-.252-6.304-.229-.728-.791-1.484-1.564-1.463-.75.02-1.258.745-1.924 1.088-1.073.553-2.376.051-3.448-.504-1.072-.554-2.267-1.181-3.43-.849-.137.718.355 1.403.89 1.908.593.442 1.083 1.002 1.439 1.645.175.695.241 1.412.197 2.127.122 1.64 1.175 3.052 2.228 4.328 1.696 2.055 3.497 4.024 5.396 5.899-.003-.003 2.882-3.522 2.826-4.136-.052-.58-1.023-1.123-1.375-1.59-.483-.637-.818-1.371-.983-2.149zM370.591 263.137c.242.649.424 1.32.542 2.005.701 3.507 1.143 7.063 1.579 10.616.116.948.232 1.898.268 2.853.123 2.268-.329 4.529-1.311 6.561-1 2.038-2.698 3.618-4.766 4.432-.636.234-1.526.276-1.804-.36-.099-.294-.097-.614.006-.906.251-.946.763-1.796 1.095-2.715.492-1.373.574-2.867.235-4.289-.13-.544-.406-1.151-.939-1.259.266 1.254.042 2.565-.623 3.65-.151.302-.412.53-.726.635-.453.047-.878-.236-1.023-.681-.13-.438-.158-.9-.083-1.351.171-2.279.507-4.542 1.006-6.769.594-2.444 1.535-4.856 1.474-7.376-.054-2.283-.936-4.524-.689-6.794.004-.14.047-.276.126-.391.077-.079.172-.139.276-.175.617-.263 1.253-.481 1.901-.649.383-.1 1.69-.569 2.057-.359.297.17.389 1.187.537 1.531.263.609.613 1.174.862 1.791zM326 195.761c4.971 0 9-4.029 9-9 0-4.97-4.029-9-9-9s-9 4.03-9 9c0 4.971 4.029 9 9 9z" fill="#A1616A"/><path d="M334.684 193.371c-.001.593.046 1.184.14 1.769.128.591.308 1.17.54 1.728.309.909.745 1.769 1.295 2.554.559.79 1.396 1.338 2.341 1.532-6.322 2.977-13.072 4.937-20 5.807 1.092-.729 2-1.703 2.653-2.845.347-.734.583-1.514.703-2.317.59-3.36.29-6.817-.869-10.023-.115-.316-.228-.704-.01-.96.092-.095.205-.168.328-.215 2.747-1.168 5.714-1.724 8.696-1.629.762.005 1.524.039 2.284.094.408.03 1.311-.057 1.636.244.388.359.194 1.473.206 1.96l.057 2.301z" fill="#A1616A"/><path d="M338.95 200.544c-2.802-3.562-7.691-4.77-11.85-2.928-4.406 2.086-6.576 7.095-10.451 10.041-.881.654-1.821 1.228-2.806 1.714-.582.319-1.202.563-1.846.725-.725.158-1.481.136-2.202.308-1.374.401-2.545 1.302-3.277 2.522-.362.639-.765 1.254-1.204 1.843-.405.477-.908.862-1.336 1.319-1.541 1.642-1.959 4-2.311 6.216-1.205 1.259-2.521 2.41-3.931 3.439-.444.339-.936.609-1.461.801-1.355.436-2.85-.118-4.006-.946-1.155-.828-2.096-1.919-3.236-2.768-1.046 1.484-2.14 2.972-3.256 4.406-.168.273-.425.482-.728.592-.209.699.293 1.423.669 2.05l2.019 3.364c.667 1.225 1.485 2.362 2.436 3.386.965 1.029 2.282 1.665 3.694 1.782.891-.008 1.774-.176 2.605-.495 3.847-1.283 7.378-3.331 11.037-5.071.663-.376 1.405-.592 2.168-.63.783-.021 1.484.479 1.713 1.222.419 2.102.836 4.196 1.413 6.26.544 1.947 1.05 3.905 1.516 5.872.312 1.203.535 2.428.667 3.664.06.702.067 1.407.073 2.111l.078 8.511c.008.917-.518 1.488-.924 2.312-.621 1.277-.715 2.745-.261 4.09.228.664.584 1.278.836 1.933.61 1.583.587 3.327.555 5.022l-.073 3.884c-.018.161.011.324.085.468.239.371.815.154 1.179-.097l1.831-1.258c2.45.335 4.925.453 7.396.354 7.028-.101 14.057.177 21.068.663 2.34.163 4.758.339 6.969-.435 1.122-.393 2.156-1.021 3.303-1.336.473-.073.922-.256 1.31-.535.642-.589.472-1.622.21-2.45-.229-.723-.489-1.436-.78-2.139-.3-.646-.544-1.316-.73-2.002-.351-1.549-.01-3.339-.982-4.601-2.177-2.824-.636-7.168-1.55-10.605-.295-1.112-.732-2.184-1.009-3.301-.174-.701-.284-1.416-.394-2.13-.286-1.544-.428-3.111-.424-4.681.026-.785.126-1.566.226-2.346l.691-5.414c.865 1.601 1.466 3.329 1.78 5.118.629 2.673 1.404 5.309 2.321 7.899.522 1.561 1.043 3.123 1.606 4.67.357.881.632 1.792.821 2.722.124.75.128 1.515.215 2.271.19 1.62.761 3.173 1.669 4.533.167.315.445.559.781.687.226.042.459.032.682-.027 2.444-.479 4.809-1.291 7.028-2.412.473-.194.884-.511 1.187-.919.598-.964-.07-2.167-.361-3.261-.311-1.172-.238-2.583-1.169-3.368-3.242-2.736-1.633-8.291-3.255-12.194-.285-.685-.617-1.352-.862-2.052-.188-.535-.324-1.086-.461-1.636-1.133-4.546-2.345-9.071-3.637-13.576-1.339-4.671-1.196-9.536-2.882-14.095-.317-.956-.731-1.877-1.235-2.75-.571-.912-1.334-1.69-2.236-2.283-2.447-1.605-4.917-2.972-7.791-3.554-2.875-.582-5.987-.492-8.92-.479z" fill="#D0CDE1"/><path d="M317.599 188.89c-1.25-.669-.92-2.486-1.133-3.881-.437-2.87-3.7-4.573-4.466-7.375.88.108 1.773-.018 2.589-.364.157-.93-.028-1.886-.522-2.691 2.684-1.084 4.856-3.21 7.581-4.187 3.427-1.229 7.243-.475 10.7.667 1.725.57 3.52 1.31 4.563 2.79 1.145 1.625 1.128 3.764 1.066 5.748-.096 3.111-.22 6.333-1.613 9.121-1.774 3.548-6.797 6.835-10.947 5.874-1.726-.4-2.234-1.477-2.961-2.968-.453-.928-.623-2.005-1.642-2.488-.997-.471-2.204.296-3.215-.246z" fill="#2F2E41"/><g opacity=".1" fill="#000"><path d="M355.612 255.05c.012.245.019.492.021.74-.012-.244-.018-.492-.021-.74zM315.526 264.331c.61 1.594.587 3.35.555 5.055-.008.446-.017.891-.025 1.336-.039-.92-.217-1.828-.53-2.695-.252-.659-.608-1.276-.836-1.944-.39-1.168-.376-2.433.041-3.592.228.628.557 1.216.795 1.84z"/></g><path d="M314.483 175.73l-.009.004c-.076-.578-.232-1.131-.461-1.631.142-.077.282-.159.421-.244.11.613.126 1.249.049 1.871z" fill="#000" opacity=".1"/><path d="M24 157.761l-2.1751-1.984c-7.7242-7.171-12.82364-11.825-12.82364-17.623-.03866-2.228.8164-4.378 2.37044-5.959 1.554-1.581 3.6746-2.459 5.8788-2.433 2.6061.014 5.0742 1.186 6.7495 3.204 1.6752-2.018 4.1434-3.19 6.7494-3.204 2.2043-.026 4.3249.852 5.8789 2.433 1.554 1.581 2.4091 3.731 2.3704 5.959 0 5.798-5.0995 10.452-12.8236 17.623L24 157.761z" fill="#FF6584"/><path clip-rule="evenodd" d="M28 152.761l-2.1751-1.984c-7.7242-7.171-12.8236-11.825-12.8236-17.623-.0387-2.228.8164-4.378 2.3704-5.959 1.554-1.581 3.6746-2.459 5.8788-2.433 2.6061.014 5.0742 1.186 6.7495 3.204 1.6752-2.018 4.1434-3.19 6.7494-3.204 2.2043-.026 4.3249.852 5.8789 2.433 1.554 1.581 2.4091 3.731 2.3704 5.959 0 5.798-5.0995 10.452-12.8236 17.623L28 152.761z" stroke="#3F3D56" stroke-width="2"/></svg>